<svg width="45" height="45" viewBox="0 0 45 45" fill="none" xmlns="http://www.w3.org/2000/svg">
    <g clip-path="url(#clip0_560_770)">
    <path d="M22.5 44.9998C34.9264 44.9998 45 34.9262 45 22.4998C45 10.0733 34.9264 -0.000244141 22.5 -0.000244141C10.0736 -0.000244141 -3.05176e-05 10.0733 -3.05176e-05 22.4998C-3.05176e-05 34.9262 10.0736 44.9998 22.5 44.9998Z" fill="#007AB9"/>
    <path d="M35.9435 24.3103V33.5865H30.5654V24.932C30.5654 22.7589 29.7889 21.2749 27.8416 21.2749C26.3556 21.2749 25.4728 22.274 25.083 23.2414C24.9414 23.5871 24.9049 24.0672 24.9049 24.5521V33.5861H19.5263C19.5263 33.5861 19.5985 18.9281 19.5263 17.4108H24.9053V19.703C24.8944 19.7211 24.8792 19.7387 24.8696 19.756H24.9053V19.703C25.62 18.6033 26.8946 17.031 29.7524 17.031C33.2907 17.031 35.9435 19.3429 35.9435 24.3103ZM13.8999 9.61377C12.0602 9.61377 10.8565 10.8214 10.8565 12.4081C10.8565 13.9611 12.0253 15.2037 13.8293 15.2037H13.8642C15.7401 15.2037 16.9065 13.9611 16.9065 12.4081C16.8708 10.8214 15.7401 9.61377 13.8999 9.61377ZM11.1762 33.5865H16.5527V17.4108H11.1762V33.5865Z" fill="#F1F2F2"/>
    </g>
    <defs>
    <clipPath id="clip0_560_770">
    <rect width="45" height="45" fill="white"/>
    </clipPath>
    </defs>
    </svg>
    