<svg width="44" height="45" viewBox="0 0 44 45" fill="none" xmlns="http://www.w3.org/2000/svg">
    <path
        d="M22.0002 44.9996C34.1503 44.9996 44 34.9261 44 22.4998C44 10.0735 34.1503 0 22.0002 0C9.85001 0 0.000366211 10.0735 0.000366211 22.4998C0.000366211 34.9261 9.85001 44.9996 22.0002 44.9996Z"
        fill="#55ACEE" />
    <path
        d="M35.4758 16.1699C34.533 16.5975 33.5189 16.8867 32.4553 17.0158C33.5413 16.3504 34.3746 15.2976 34.768 14.041C33.7518 14.6575 32.6259 15.1047 31.4286 15.3457C30.4694 14.3009 29.1027 13.6479 27.5893 13.6479C24.6857 13.6479 22.3308 16.0564 22.3308 19.026C22.3308 19.4476 22.3774 19.8579 22.4676 20.2517C18.0973 20.0275 14.2223 17.8866 11.6285 14.6318C11.176 15.4259 10.9163 16.3504 10.9163 17.3359C10.9163 19.2013 11.8454 20.8481 13.2556 21.8123C12.394 21.7847 11.5826 21.5428 10.874 21.1389C10.8736 21.1618 10.8736 21.1846 10.8736 21.2071C10.8736 23.8129 12.687 25.9864 15.0921 26.4801C14.6513 26.6036 14.1858 26.669 13.707 26.669C13.3674 26.669 13.0384 26.6357 12.7176 26.5732C13.3866 28.7093 15.3282 30.2643 17.6298 30.308C15.8298 31.7507 13.5627 32.6102 11.0983 32.6102C10.6748 32.6102 10.2551 32.5849 9.84454 32.5348C12.1705 34.0613 14.9353 34.9513 17.9048 34.9513C27.5772 34.9513 32.8667 26.7565 32.8667 19.6489C32.8667 19.4159 32.8616 19.1837 32.8514 18.9534C33.8797 18.1954 34.7711 17.2484 35.4758 16.1699Z"
        fill="#F1F2F2" />
</svg>
    